/* XPM */
static char *min2[] = {
/* columns rows colors chars-per-pixel */
"13 15 195 2 ",
"   c #161616161616",
".  c #161616161616",
"X  c #161616161616",
"o  c #161616161616",
"O  c #161616161616",
"+  c #161616161616",
"@  c #161616161616",
"#  c #161616161616",
"$  c #161616161616",
"%  c #161616161616",
"&  c #161616161616",
"*  c #161616161616",
"=  c #161616161616",
"-  c #1A1A15151212",
";  c #181812121212",
":  c #1A1A15151212",
">  c #181812121212",
",  c #1A1A15151212",
"<  c #181812121212",
"1  c #1A1A15151212",
"2  c #181812121212",
"3  c #1A1A15151212",
"4  c #181812121212",
"5  c #1A1A15151212",
"6  c #181812121212",
"7  c #1A1A15151212",
"8  c #77774C4C4646",
"9  c #77774C4C4646",
"0  c #77774C4C4646",
"q  c #77774C4C4646",
"w  c #77774C4C4646",
"e  c #77774C4C4646",
"r  c #77774C4C4646",
"t  c #77774C4C4646",
"y  c #77774C4C4646",
"u  c #77774C4C4646",
"i  c #77774C4C4646",
"p  c #77774C4C4646",
"a  c #77774C4C4646",
"s  c #77774C4C4646",
"d  c #77774C4C4646",
"f  c #77774C4C4646",
"g  c #77774C4C4646",
"h  c #77774C4C4646",
"j  c #77774C4C4646",
"k  c #77774C4C4646",
"l  c #77774C4C4646",
"z  c #77774C4C4646",
"x  c #77774C4C4646",
"c  c #77774C4C4646",
"v  c #77774C4C4646",
"b  c #77774C4C4646",
"n  c #77774C4C4646",
"m  c #77774C4C4646",
"M  c #77774C4C4646",
"N  c #77774C4C4646",
"B  c #77774C4C4646",
"V  c #77774C4C4646",
"C  c #77774C4C4646",
"Z  c #77774C4C4646",
"A  c #77774C4C4646",
"S  c #77774C4C4646",
"D  c #77774C4C4646",
"F  c #77774C4C4646",
"G  c #77774C4C4646",
"H  c #77774C4C4646",
"J  c #77774C4C4646",
"K  c #77774C4C4646",
"L  c #77774C4C4646",
"P  c #77774C4C4646",
"I  c #77774C4C4646",
"U  c #77774C4C4646",
"Y  c #77774C4C4646",
"T  c #77774C4C4646",
"R  c #77774C4C4646",
"E  c #77774C4C4646",
"W  c #77774C4C4646",
"Q  c #77774C4C4646",
"!  c #77774C4C4646",
"~  c #77774C4C4646",
"^  c #77774C4C4646",
"/  c #77774C4C4646",
"(  c #77774C4C4646",
")  c #77774C4C4646",
"_  c #77774C4C4646",
"`  c #77774C4C4646",
"'  c #77774C4C4646",
"]  c #77774C4C4646",
"[  c #77774C4C4646",
"{  c #77774C4C4646",
"}  c #77774C4C4646",
"|  c #77774C4C4646",
" . c #77774C4C4646",
".. c #77774C4C4646",
"X. c #77774C4C4646",
"o. c #77774C4C4646",
"O. c #77774C4C4646",
"+. c #77774C4C4646",
"@. c #77774C4C4646",
"#. c #77774C4C4646",
"$. c #77774C4C4646",
"%. c #77774C4C4646",
"&. c #77774C4C4646",
"*. c #77774C4C4646",
"=. c #77774C4C4646",
"-. c #77774C4C4646",
";. c #77774C4C4646",
":. c #77774C4C4646",
">. c #77774C4C4646",
",. c #77774C4C4646",
"<. c #77774C4C4646",
"1. c #77774C4C4646",
"2. c #77774C4C4646",
"3. c #77774C4C4646",
"4. c #77774C4C4646",
"5. c #77774C4C4646",
"6. c #77774C4C4646",
"7. c #77774C4C4646",
"8. c #77774C4C4646",
"9. c #77774C4C4646",
"0. c #77774C4C4646",
"q. c #77774C4C4646",
"w. c #77774C4C4646",
"e. c #77774C4C4646",
"r. c #77774C4C4646",
"t. c #77774C4C4646",
"y. c #77774C4C4646",
"u. c #77774C4C4646",
"i. c #77774C4C4646",
"p. c #77774C4C4646",
"a. c #77774C4C4646",
"s. c #77774C4C4646",
"d. c #77774C4C4646",
"f. c #77774C4C4646",
"g. c #77774C4C4646",
"h. c #77774C4C4646",
"j. c #77774C4C4646",
"k. c #77774C4C4646",
"l. c #77774C4C4646",
"z. c #77774C4C4646",
"x. c #77774C4C4646",
"c. c #77774C4C4646",
"v. c #77774C4C4646",
"b. c #77774C4C4646",
"n. c #77774C4C4646",
"m. c #77774C4C4646",
"M. c #77774C4C4646",
"N. c #77774C4C4646",
"B. c #77774C4C4646",
"V. c #77774C4C4646",
"C. c #77774C4C4646",
"Z. c #77774C4C4646",
"A. c #77774C4C4646",
"S. c #77774C4C4646",
"D. c #77774C4C4646",
"F. c #77774C4C4646",
"G. c #77774C4C4646",
"H. c #77774C4C4646",
"J. c #77774C4C4646",
"K. c #77774C4C4646",
"L. c #77774C4C4646",
"P. c #77774C4C4646",
"I. c #77774C4C4646",
"U. c #77774C4C4646",
"Y. c #77774C4C4646",
"T. c #77774C4C4646",
"R. c #77774C4C4646",
"E. c #77774C4C4646",
"W. c #77774C4C4646",
"Q. c #1A1A12121010",
"!. c #1A1A10100F0F",
"~. c #1A1A12121010",
"^. c #1A1A10100F0F",
"/. c #1A1A10100F0F",
"(. c #1A1A10100F0F",
"). c #1A1A10100F0F",
"_. c #1A1A10100F0F",
"`. c #1A1A10100F0F",
"'. c #1A1A10100F0F",
"]. c #1A1A10100F0F",
"[. c #1A1A10100F0F",
"{. c #1A1A10100F0F",
"}. c #181817171515",
"|. c #181814141313",
" X c #181817171515",
".X c #181814141313",
"XX c #181814141313",
"oX c #181814141313",
"OX c #181814141313",
"+X c #181814141313",
"@X c #181814141313",
"#X c #181814141313",
"$X c #181814141313",
"%X c #181814141313",
"&X c #181814141313",
/* pixels */
"  . X o O + @ # $ % & * = ",
"- ; : > , < 1 2 3 4 5 6 7 ",
"8 9 0 q w e r t y u i p a ",
"s d f g h j k l z x c v b ",
"n m M N B V C Z A S D F G ",
"H J K L P I U Y T R E W Q ",
"! ~ ^ / ( ) _ ` ' ] [ { } ",
"|  ...X.o.O.+.@.#.$.%.&.*.",
"=.-.;.:.>.,.<.1.2.3.4.5.6.",
"7.8.9.0.q.w.e.r.t.y.u.i.p.",
"a.s.d.f.g.h.j.k.l.z.x.c.v.",
"b.n.m.M.N.B.V.C.Z.A.S.D.F.",
"G.H.J.K.L.P.I.U.Y.T.R.E.W.",
"Q.!.~.^./.(.)._.`.'.].[.{.",
"}.|. X.XXXoXOX+X@X#X$X%X&X"
};
